<svg width="64" height="64" viewBox="0 0 64 64" fill="none" xmlns="http://www.w3.org/2000/svg">
<path d="M0 10.9589C0 4.90647 4.90647 0 10.9589 0H53.0411C59.0935 0 64 4.90647 64 10.9589V53.0411C64 59.0935 59.0935 64 53.0411 64H10.9589C4.90647 64 0 59.0935 0 53.0411V10.9589Z" fill="url(#paint0_linear_802_4264)"/>
<g filter="url(#filter0_dd_802_4264)">
<path d="M59.9021 30.8235V37.7009H56.7479V30.5724C56.7479 30.2407 56.567 29.6442 56.1252 29.1285C55.6794 28.6079 54.9665 28.1678 53.9044 28.1586H53.9036C52.9173 28.1586 52.1336 28.4328 51.6066 28.9972C51.2498 29.3729 51.0277 29.8582 50.9175 30.4464L50.9158 30.4555V30.4648V30.4654V30.466V30.4667V30.4673V30.4679V30.4686V30.4692V30.4698V30.4705V30.4711V30.4717V30.4724V30.473V30.4737V30.4743V30.4749V30.4756V30.4762V30.4768V30.4775V30.4781V30.4788V30.4794V30.48V30.4807V30.4813V30.482V30.4826V30.4832V30.4839V30.4845V30.4852V30.4858V30.4865V30.4871V30.4877V30.4884V30.489V30.4897V30.4903V30.491V30.4916V30.4923V30.4929V30.4936V30.4942V30.4949V30.4955V30.4962V30.4968V30.4975V30.4981V30.4988V30.4994V30.5001V30.5007V30.5014V30.502V30.5027V30.5033V30.504V30.5046V30.5053V30.506V30.5066V30.5073V30.5079V30.5086V30.5092V30.5099V30.5105V30.5112V30.5119V30.5125V30.5132V30.5138V30.5145V30.5152V30.5158V30.5165V30.5171V30.5178V30.5185V30.5191V30.5198V30.5205V30.5211V30.5218V30.5224V30.5231V30.5238V30.5244V30.5251V30.5258V30.5264V30.5271V30.5278V30.5284V30.5291V30.5298V30.5304V30.5311V30.5318V30.5324V30.5331V30.5338V30.5344V30.5351V30.5358V30.5365V30.5371V30.5378V30.5385V30.5391V30.5398V30.5405V30.5412V30.5418V30.5425V30.5432V30.5439V30.5445V30.5452V30.5459V30.5466V30.5472V30.5479V30.5486V30.5493V30.5499V30.5506V30.5513V30.552V30.5527V30.5533V30.554V30.5547V30.5554V30.556V30.5567V30.5574V30.5581V30.5588V30.5594V30.5601V30.5608V30.5615V30.5622V30.5629V30.5635V30.5642V30.5649V30.5656V30.5663V30.567V30.5676V30.5683V30.569V30.5697V30.5704V30.5711V30.5718V30.5724V30.5731V30.5738V30.5745V30.5752V30.5759V30.5766V30.5773V30.578V30.5786V30.5793V30.58V30.5807V30.5814V30.5821V30.5828V30.5835V30.5842V30.5849V30.5855V30.5862V30.5869V30.5876V30.5883V30.589V30.5897V30.5904V30.5911V30.5918V30.5925V30.5932V30.5939V30.5946V30.5953V30.596V30.5967V30.5974V30.598V30.5987V30.5994V30.6001V30.6008V30.6015V30.6022V30.6029V30.6036V30.6043V30.605V30.6057V30.6064V30.6071V30.6078V30.6085V30.6092V30.6099V30.6106V30.6113V30.612V30.6127V30.6134V30.6141V30.6148V30.6155V30.6162V30.6169V30.6176V30.6184V30.6191V30.6198V30.6205V30.6212V30.6219V30.6226V30.6233V30.624V30.6247V30.6254V30.6261V30.6268V30.6275V30.6282V30.6289V30.6296V30.6303V30.6311V30.6318V30.6325V30.6332V30.6339V30.6346V30.6353V30.636V30.6367V30.6374V30.6381V30.6388V30.6396V30.6403V30.641V30.6417V30.6424V30.6431V30.6438V30.6445V30.6452V30.646V30.6467V30.6474V30.6481V30.6488V30.6495V30.6502V30.6509V30.6517V30.6524V30.6531V30.6538V30.6545V30.6552V30.6559V30.6567V30.6574V30.6581V30.6588V30.6595V30.6602V30.6609V30.6617V30.6624V30.6631V30.6638V30.6645V30.6652V30.666V30.6667V30.6674V30.6681V30.6688V30.6695V30.6703V30.671V30.6717V30.6724V30.6731V30.6739V30.6746V30.6753V30.676V30.6767V30.6775V30.6782V30.6789V30.6796V30.6803V30.6811V30.6818V30.6825V30.6832V30.6839V30.6847V30.6854V30.6861V30.6868V30.6875V30.6883V30.689V30.6897V30.6904V30.6912V30.6919V30.6926V30.6933V30.694V30.6948V30.6955V30.6962V30.6969V30.6977V30.6984V30.6991V30.6998V30.7006V30.7013V30.702V30.7027V30.7035V30.7042V30.7049V30.7056V30.7064V30.7071V30.7078V30.7085V30.7093V30.71V30.7107V30.7114V30.7122V30.7129V30.7136V30.7143V30.7151V30.7158V30.7165V30.7173V30.718V30.7187V30.7194V30.7202V30.7209V30.7216V30.7223V30.7231V30.7238V30.7245V30.7253V30.726V30.7267V30.7274V30.7282V30.7289V30.7296V30.7304V30.7311V30.7318V30.7326V30.7333V30.734V30.7347V30.7355V30.7362V30.7369V30.7377V30.7384V30.7391V30.7399V30.7406V30.7413V30.742V30.7428V30.7435V30.7442V30.745V30.7457V30.7464V30.7472V30.7479V30.7486V30.7494V30.7501V30.7508V30.7515V30.7523V30.753V30.7537V30.7545V30.7552V30.7559V30.7567V30.7574V30.7581V30.7589V30.7596V30.7603V30.7611V30.7618V30.7625V30.7633V30.764V30.7647V30.7655V30.7662V30.7669V30.7677V30.7684V30.7691V30.7699V30.7706V30.7713V30.7721V30.7728V30.7735V30.7743V30.775V30.7757V30.7765V30.7772V30.7779V30.7787V30.7794V30.7801V30.7809V30.7816V30.7823V30.7831V30.7838V30.7845V30.7853V30.786V30.7868V30.7875V30.7882V30.789V30.7897V30.7904V30.7912V30.7919V30.7926V30.7934V30.7941V30.7948V30.7956V30.7963V30.797V30.7978V30.7985V30.7992V30.8V30.8007V30.8015V30.8022V30.8029V30.8037V30.8044V30.8051V30.8059V30.8066V30.8073V30.8081V30.8088V30.8095V30.8103V30.811V30.8118V30.8125V30.8132V30.814V30.8147V30.8154V30.8162V30.8169V30.8176V30.8184V30.8191V30.8198V30.8206V30.8213V30.8221V30.8228V30.8235V37.7009H48.6302H47.7795V30.5724C47.7795 30.2407 47.5986 29.6441 47.1544 29.1283C46.7062 28.6077 45.9889 28.1678 44.9181 28.1586H44.9173C43.9302 28.1586 43.1646 28.4333 42.638 28.9975C42.1141 29.5587 41.8398 30.3389 41.8398 31.3616V37.7009H39.6439H38.7753V37.684V37.6667V37.6493V37.6317V37.614V37.5961V37.5781V37.56V37.5417V37.5232V37.5047V37.486V37.4672V37.4482V37.4291V37.4098V37.3905V37.3709V37.3513V37.3315V37.3116V37.2916V37.2714V37.2511V37.2307V37.2101V37.1895V37.1686V37.1477V37.1267V37.1055V37.0842V37.0627V37.0412V37.0195V36.9977V36.9758V36.9538V36.9316V36.9094V36.887V36.8645V36.8418V36.8191V36.7963V36.7733V36.7502V36.727V36.7037V36.6803V36.6568V36.6332V36.6094V36.5856V36.5616V36.5376V36.5134V36.4891V36.4648V36.4403V36.4157V36.391V36.3662V36.3413V36.3164V36.2913V36.2661V36.2408V36.2154V36.1899V36.1644V36.1387V36.1129V36.0871V36.0611V36.0351V36.0089V35.9827V35.9564V35.93V35.9035V35.8769V35.8502V35.8235V35.7966V35.7697V35.7427V35.7156V35.6884V35.6612V35.6338V35.6064V35.5789V35.5513V35.5236V35.4959V35.4681V35.4402V35.4122V35.3842V35.356V35.3278V35.2996V35.2712V35.2428V35.2143V35.1858V35.1571V35.1284V35.0997V35.0708V35.0419V35.013V34.9839V34.9548V34.9257V34.8965V34.8672V34.8378V34.8084V34.779V34.7494V34.7198V34.6902V34.6605V34.6307V34.6009V34.571V34.5411V34.5111V34.4811V34.451V34.4209V34.3907V34.3604V34.3301V34.2998V34.2694V34.239V34.2085V34.1779V34.1474V34.1167V34.0861V34.0554V34.0246V33.9938V33.963V33.9321V33.9012V33.8702V33.8392V33.8082V33.7771V33.746V33.7149V33.6837V33.6525V33.6213V33.59V33.5587V33.5273V33.496V33.4646V33.4331V33.4017V33.3702V33.3387V33.3071V33.2756V33.244V33.2124V33.1807V33.149V33.1174V33.0857V33.0539V33.0222V32.9904V32.9586V32.9268V32.895V32.8632V32.8313V32.7994V32.7676V32.7357V32.7037V32.6718V32.6399V32.6079V32.576V32.544V32.512V32.4801V32.4481V32.4161V32.3841V32.3521V32.3201V32.288V32.256V32.224V32.192V32.16V32.1279V32.0959V32.0639V32.0319V31.9999V31.9678V31.9358V31.9038V31.8718V31.8398V31.8078V31.7759V31.7439V31.7119V31.68V31.648V31.6161V31.5842V31.5523V31.5204V31.4885V31.4566V31.4248V31.3929V31.3611V31.3293V31.2975V31.2658V31.234V31.2023V31.1706V31.1389V31.1073V31.0756V31.044V31.0124V30.9809V30.9493V30.9178V30.8863V30.8549V30.8235V30.7921V30.7607V30.7294V30.6981V30.6668V30.6355V30.6043V30.5732V30.542V30.5109V30.4799V30.4488V30.4179V30.3869V30.356V30.3251V30.2943V30.2635V30.2328V30.2021V30.1714V30.1408V30.1102V30.0797V30.0492V30.0188V29.9884V29.9581V29.9278V29.8976V29.8674V29.8373V29.8072V29.7772V29.7472V29.7173V29.6874V29.6576V29.6279V29.5982V29.5685V29.539V29.5094V29.48V29.4506V29.4212V29.392V29.3628V29.3336V29.3045V29.2755V29.2466V29.2177V29.1889V29.1601V29.1314V29.1028V29.0743V29.0458V29.0174V28.9891V28.9608V28.9326V28.9045V28.8765V28.8485V28.8206V28.7928V28.7651V28.7375V28.7099V28.6824V28.655V28.6277V28.6004V28.5732V28.5462V28.5192V28.4922V28.4654V28.4387V28.412V28.3855V28.359V28.3326V28.3063V28.2801V28.254V28.2279V28.202V28.1762V28.1504V28.1248V28.0992V28.0738V28.0484V28.0231V27.998V27.9729V27.9479V27.9231V27.8983V27.8736V27.8491V27.8246V27.8003V27.776V27.7519V27.7278V27.7039V27.6801V27.6563V27.6327V27.6092V27.5858V27.5626V27.5394V27.5163V27.4934V27.4706V27.4479V27.4253V27.4028V27.3804V27.3582V27.3361V27.314V27.2922V27.2704V27.2487V27.2272V27.2058V27.1845V27.1634V27.1423V27.1214V27.1006V27.08V27.0595V27.0391V27.0188V26.9986V26.9786V26.9587V26.939V26.9194V26.8999V26.8805V26.8613V26.8422V26.8233V26.8045V26.7858V26.7673V26.7489V26.7306V26.7125V26.6945V26.6767V26.659V26.6415V26.6241V26.6068V26.5897V26.5727V26.5559V26.5392V26.5227V26.5063V26.4901V26.474V26.4581V26.4423V26.4267V26.4112V26.3959V26.3807V26.3657V26.3508V26.3361V26.3216V26.3072V26.293V26.2789V26.265V26.2513V26.2377V26.2243V26.211V26.1979V26.185V26.1722V26.1596V26.1472V26.1349V26.1228V26.1109V26.0991V26.0875V26.0761V26.0648V26.0537V26.0428V26.0321V26.0215V26.0112V26.001V25.9909V25.9811V25.9714V25.9619V25.9526V25.9434V25.9345V25.9257V25.9171V25.9087V25.9004V25.8924V25.8845V25.8768V25.8694V25.862V25.8549V25.848V25.8413V25.8347V25.8295H41.7121L40.9266 30.1059L41.1192 30.1577L41.7288 28.4542C41.7289 28.4541 41.7289 28.454 41.7289 28.454C42.0798 27.4891 42.7618 26.6882 43.6821 26.3061L43.6911 26.3024L43.6992 26.297C43.7404 26.2695 43.7821 26.2552 43.8368 26.2369L43.8368 26.237L43.8403 26.2357C44.5474 25.9705 45.2709 25.8295 46.0293 25.8295C46.8986 25.8295 47.6765 25.9536 48.3819 26.2005C49.0847 26.4465 49.644 26.8142 50.0983 27.3209L50.0983 27.3209L50.0996 27.3223C50.3433 27.5834 50.5342 27.8789 50.6551 28.1552L50.7457 28.3624L50.838 28.1559C51.2056 27.3331 51.8522 26.6532 52.652 26.3055L52.6602 26.3019L52.6676 26.297C52.698 26.2767 52.7355 26.2649 52.7815 26.2503C52.7946 26.2462 52.8085 26.2418 52.8231 26.2369L52.8232 26.237L52.8274 26.2354C53.5156 25.9707 54.2568 25.8295 55.0156 25.8295C55.8847 25.8295 56.6625 25.9536 57.3678 26.2004C58.0536 26.4466 58.6305 26.8146 59.0842 27.3204C59.4535 27.7426 59.6921 28.1741 59.7598 28.5972L59.7598 28.5972L59.7604 28.6003C59.8482 29.0572 59.9021 29.7851 59.9021 30.8235Z" fill="#0C0D0D" stroke="url(#paint1_linear_802_4264)" stroke-width="0.2"/>
<path d="M36.2508 36.9942L36.2508 36.9943C36.2684 39.9882 33.8379 42.4362 30.8442 42.4362H27.1596V39.8201H31.203C32.3133 39.8201 33.2171 38.9195 33.2222 37.8103L34.0456 33.4249L33.8535 33.3718L33.2257 35.0758L33.2257 35.0758L33.225 35.0777C32.893 36.0388 32.1955 36.8401 31.2926 37.2411C31.2865 37.2431 31.2794 37.2453 31.2717 37.2476C31.2274 37.2614 31.1601 37.2822 31.1049 37.3159C30.4184 37.5612 29.6978 37.7009 28.925 37.7009C28.0559 37.7009 27.2781 37.5768 26.5728 37.33C25.8866 37.0836 25.3099 36.7155 24.8744 36.2279C24.4882 35.789 24.2657 35.3743 24.1803 34.9301C24.0926 34.4742 24.0565 33.7475 24.0565 32.7069V25.8295H27.1928V32.958C27.1928 33.2982 27.3734 33.8993 27.8155 34.4154C28.2615 34.9361 28.9744 35.3716 30.0362 35.3718C31.0248 35.3899 31.8078 35.0967 32.3338 34.5335C32.8598 33.9883 33.1146 33.1883 33.1146 32.1688V25.8295H35.3105H36.1971C36.1978 26.7849 36.209 28.8536 36.2218 31.2194C36.2319 33.0931 36.2431 35.1531 36.2508 36.9942Z" fill="#0C0D0D" stroke="url(#paint2_linear_802_4264)" stroke-width="0.2"/>
<path d="M19.9399 24.7421C20.6882 25.4904 21.2082 26.454 21.4819 27.6207H18.2962C18.0793 27.2016 17.7948 26.8167 17.4428 26.4823L17.4425 26.482C16.5035 25.5982 15.1662 25.1633 13.4637 25.1633C11.7613 25.1633 10.424 25.5982 9.48498 26.482C8.547 27.3648 8.07239 28.5587 8.07239 30.0524C8.07239 31.5465 8.54712 32.7398 9.48423 33.6402C10.4234 34.5425 11.7432 34.9774 13.4637 34.9774C15.1662 34.9774 16.504 34.5426 17.4432 33.6402L17.4446 33.6388C17.7741 33.3092 18.049 32.9428 18.2689 32.5397L18.3495 32.3918H18.1811H12.8821V29.7758H21.5608V37.9163H18.4784V35.2541V34.9308L18.2959 35.1976C17.3761 36.5418 15.8607 37.8093 13.4623 37.8446L13.4619 37.8446C10.578 37.898 8.42116 37.0263 6.99223 35.3857L6.99237 35.3856L6.98804 35.3812C5.77446 34.15 5.16934 32.3851 5.16934 30.0524C5.16934 27.7195 5.77456 25.9551 6.98753 24.7421L6.9877 24.7423L6.99223 24.7371C8.42038 23.0974 10.5768 22.2782 13.4637 22.2782C16.2955 22.2782 18.4359 23.0967 19.9368 24.7389L19.9367 24.739L19.9399 24.7421Z" fill="#0C0D0D" stroke="url(#paint3_linear_802_4264)" stroke-width="0.2"/>
</g>
<defs>
<filter id="filter0_dd_802_4264" x="3.56934" y="20.6782" width="57.9326" height="23.3579" filterUnits="userSpaceOnUse" color-interpolation-filters="sRGB">
<feFlood flood-opacity="0" result="BackgroundImageFix"/>
<feColorMatrix in="SourceAlpha" type="matrix" values="0 0 0 0 0 0 0 0 0 0 0 0 0 0 0 0 0 0 127 0" result="hardAlpha"/>
<feOffset dx="-0.5" dy="-0.5"/>
<feGaussianBlur stdDeviation="0.5"/>
<feComposite in2="hardAlpha" operator="out"/>
<feColorMatrix type="matrix" values="0 0 0 0 1 0 0 0 0 1 0 0 0 0 1 0 0 0 0.25 0"/>
<feBlend mode="normal" in2="BackgroundImageFix" result="effect1_dropShadow_802_4264"/>
<feColorMatrix in="SourceAlpha" type="matrix" values="0 0 0 0 0 0 0 0 0 0 0 0 0 0 0 0 0 0 127 0" result="hardAlpha"/>
<feOffset dx="0.5" dy="0.5"/>
<feGaussianBlur stdDeviation="0.5"/>
<feComposite in2="hardAlpha" operator="out"/>
<feColorMatrix type="matrix" values="0 0 0 0 0 0 0 0 0 0 0 0 0 0 0 0 0 0 0.25 0"/>
<feBlend mode="normal" in2="effect1_dropShadow_802_4264" result="effect2_dropShadow_802_4264"/>
<feBlend mode="normal" in="SourceGraphic" in2="effect2_dropShadow_802_4264" result="shape"/>
</filter>
<linearGradient id="paint0_linear_802_4264" x1="32" y1="0" x2="32.3168" y2="69.3861" gradientUnits="userSpaceOnUse">
<stop offset="0.31" stop-color="#C7F640"/>
<stop offset="1" stop-color="#8A54FF"/>
</linearGradient>
<linearGradient id="paint1_linear_802_4264" x1="49.3387" y1="25.7295" x2="49.3387" y2="37.8009" gradientUnits="userSpaceOnUse">
<stop stop-color="white" stop-opacity="0.7"/>
<stop offset="1" stop-color="white" stop-opacity="0"/>
</linearGradient>
<linearGradient id="paint2_linear_802_4264" x1="30.1537" y1="25.7295" x2="30.1537" y2="42.5362" gradientUnits="userSpaceOnUse">
<stop stop-color="white" stop-opacity="0.7"/>
<stop offset="1" stop-color="white" stop-opacity="0"/>
</linearGradient>
<linearGradient id="paint3_linear_802_4264" x1="13.3651" y1="22.1782" x2="13.3651" y2="38.0163" gradientUnits="userSpaceOnUse">
<stop stop-color="white" stop-opacity="0.7"/>
<stop offset="1" stop-color="white" stop-opacity="0"/>
</linearGradient>
</defs>
</svg>
